<?xml version="1.0" standalone="no"?>
<!DOCTYPE svg PUBLIC "-//W3C//DTD SVG 20010904//EN"
 "http://www.w3.org/TR/2001/REC-SVG-20010904/DTD/svg10.dtd">
<svg version="1.0" xmlns="http://www.w3.org/2000/svg"
 width="228.000000pt" height="223.000000pt" viewBox="0 0 228.000000 223.000000"
 preserveAspectRatio="xMidYMid meet">

<g transform="translate(0.000000,223.000000) scale(0.100000,-0.100000)"
fill="#000000" stroke="none">
<path d="M1067 1829 c-26 -4 -64 -17 -83 -28 -19 -12 -51 -21 -70 -21 -19 0
-49 -7 -66 -16 -30 -15 -31 -15 -62 15 -79 76 -176 68 -218 -17 -20 -42 -21
-50 -10 -114 l12 -69 -31 -27 c-33 -27 -68 -93 -69 -127 0 -10 -17 -36 -37
-57 -36 -37 -38 -42 -42 -116 -3 -62 -8 -82 -26 -104 -33 -39 -39 -77 -20
-133 9 -26 14 -58 10 -73 -9 -36 12 -78 50 -100 21 -13 34 -30 38 -50 4 -20
24 -45 57 -73 27 -23 50 -49 50 -57 0 -22 39 -71 69 -86 15 -8 45 -17 66 -21
22 -4 49 -16 60 -25 61 -56 229 -85 431 -77 157 6 236 24 307 67 27 17 67 34
90 39 55 13 88 39 112 89 11 23 39 57 62 77 23 19 46 50 53 69 6 18 22 39 36
47 35 18 57 64 50 102 -4 18 0 48 10 73 20 53 12 104 -21 136 -22 20 -25 32
-25 96 0 71 -1 74 -40 116 -22 24 -40 52 -40 62 -1 34 -36 99 -70 127 -31 27
-32 29 -21 72 23 90 5 162 -48 189 -57 30 -115 19 -174 -34 -35 -30 -37 -31
-66 -16 -16 9 -43 16 -59 16 -16 0 -54 11 -83 24 -63 28 -116 35 -182 25z
m165 -56 c19 -11 58 -23 87 -26 75 -9 85 -20 60 -65 l-19 -37 21 -17 c12 -10
27 -18 34 -18 8 0 23 -13 35 -30 16 -23 29 -30 54 -30 22 0 40 -8 56 -26 17
-17 31 -23 47 -20 40 11 88 -66 77 -123 -6 -31 1 -40 77 -105 16 -13 18 -25
13 -75 -7 -59 -7 -59 34 -99 l41 -40 -2 -87 -2 -88 -32 -16 c-24 -12 -36 -26
-44 -54 -9 -36 -20 -48 -78 -94 -13 -11 -29 -35 -35 -53 -14 -44 -67 -80 -116
-80 -26 0 -42 -7 -57 -24 -53 -61 -263 -95 -465 -77 -132 13 -198 32 -250 72
-24 19 -49 29 -71 29 -48 0 -99 37 -112 82 -7 25 -23 46 -52 67 -45 33 -63 58
-63 90 0 13 -12 26 -35 37 -39 18 -53 52 -38 87 8 17 5 29 -8 52 -29 47 -24
89 15 132 29 32 32 42 24 63 -5 14 -7 45 -5 70 4 36 12 51 40 75 25 21 37 43
42 70 9 49 27 84 54 109 19 17 23 18 39 4 32 -29 57 -30 82 -3 16 17 34 25 56
25 25 0 39 7 56 30 12 17 27 30 34 30 6 0 22 8 35 19 l23 18 -22 37 -21 36 29
15 c16 8 46 15 68 15 21 0 43 5 49 11 41 41 184 48 245 12z m348 -43 c13 -9
13 -10 -1 -10 -8 0 -37 -14 -63 -31 -26 -17 -49 -29 -52 -26 -7 6 50 59 74 69
23 9 25 9 42 -2z m-934 -15 c-12 -9 -19 -27 -19 -44 0 -35 -12 -33 -19 3 -6
33 8 56 35 56 21 -1 21 -1 3 -15z m1046 -202 c26 -29 48 -81 48 -115 0 -10 19
-37 41 -58 l42 -40 -6 -68 c-7 -67 -6 -69 23 -97 21 -20 30 -38 29 -59 0 -26
-2 -28 -9 -11 -4 11 -22 33 -39 50 -30 27 -31 33 -30 94 2 60 0 66 -27 87 -62
50 -64 53 -64 102 0 34 -7 58 -25 84 -41 60 -29 80 17 31z"/>
<path d="M1089 1696 c-11 -19 -36 -44 -55 -55 -43 -26 -43 -47 1 -68 19 -9 44
-32 55 -50 24 -40 36 -41 57 -5 9 16 33 37 52 48 48 26 53 57 11 74 -18 7 -43
30 -56 52 -13 21 -29 38 -34 38 -6 0 -20 -15 -31 -34z m55 -31 c3 -9 22 -25
42 -37 34 -20 35 -22 18 -35 -10 -7 -24 -11 -30 -9 -6 2 -20 -11 -30 -30 -21
-39 -30 -42 -39 -14 -4 11 -25 30 -48 42 -38 19 -40 22 -23 32 10 6 34 23 53
39 41 31 49 33 57 12z"/>
<path d="M1120 1646 c0 -2 8 -10 18 -17 15 -13 16 -12 3 4 -13 16 -21 21 -21
13z"/>
<path d="M889 1540 c-50 -26 -116 -102 -147 -168 -21 -45 -27 -73 -28 -135 0
-75 -2 -79 -30 -96 -162 -100 -127 -351 55 -405 65 -19 142 -20 192 -2 l35 12
0 -66 c-1 -107 45 -152 155 -152 110 0 165 58 155 163 l-5 57 46 -14 c140 -42
300 26 332 141 32 114 -1 209 -93 265 -27 17 -28 21 -30 102 -1 72 -6 91 -34
143 -59 112 -136 175 -214 175 -61 0 -98 -21 -129 -71 -13 -21 -26 -39 -29
-39 -3 0 -14 16 -25 37 -11 20 -33 45 -50 55 -39 23 -110 23 -156 -2z m144
-38 c44 -40 62 -92 62 -188 l0 -91 -37 -35 c-21 -19 -38 -43 -38 -52 0 -45
-137 -59 -210 -21 -115 60 -48 318 103 394 47 24 89 22 120 -7z m314 -4 c76
-45 135 -147 141 -244 7 -104 -34 -150 -142 -161 -62 -6 -126 16 -126 45 0 19
-19 42 -55 67 -18 12 -20 25 -20 107 0 81 3 99 25 138 43 77 102 93 177 48z
m-207 -318 c0 -5 -15 -16 -34 -24 -19 -8 -37 -24 -41 -35 -9 -28 -25 -27 -25
2 0 24 22 49 50 60 25 9 50 8 50 -3z m-410 -99 c0 -5 -11 -23 -25 -39 -32 -38
-40 -78 -26 -128 7 -25 7 -42 1 -48 -17 -17 -33 11 -38 67 -3 41 1 63 17 95
24 47 71 82 71 53z"/>
<path d="M950 1352 c0 -4 5 -13 11 -19 14 -14 1 -36 -17 -29 -19 7 -18 -24 2
-52 18 -27 36 -28 57 -4 19 21 22 64 7 93 -10 18 -60 28 -60 11z"/>
<path d="M1235 1351 c-3 -6 -1 -11 4 -11 6 0 11 -9 11 -21 0 -15 -5 -19 -15
-15 -22 8 -19 -27 4 -55 16 -20 23 -22 38 -13 47 29 40 116 -9 122 -14 2 -29
-2 -33 -7z"/>
</g>
</svg>
